<svg width="1000" height="160" viewBox="0 0 1000 160" fill="none" xmlns="http://www.w3.org/2000/svg">
<g clip-path="url(#clip0_5_474)">
<path d="M372.902 107.309L371.232 106.086C370.931 105.862 370.752 105.51 370.752 105.139V85.357C370.752 73.3572 367.296 62.8934 360.761 55.092C357.869 51.636 354.464 48.8265 350.63 46.6761L349.459 45.9273C349.133 45.7225 349.094 45.2618 349.376 44.9994L353.139 41.5434C353.44 41.2554 353.497 40.801 353.28 40.4491L335.923 12.1232C331.45 4.82094 324.864 0.635419 317.863 0.635419C312.493 0.635419 307.738 2.80498 304.404 6.33131C303.969 6.7921 303.233 6.8177 302.772 6.38251C298.478 2.36979 292.084 0.00183105 284.462 0.00183105C274.958 0.00183105 266.184 3.62416 259.125 9.71684C258.638 10.1392 257.896 10.088 257.474 9.59525C256.309 8.21287 254.92 6.9713 253.339 5.90252C248.987 2.96497 243.285 1.4162 236.86 1.4162C225.122 1.4162 213.571 6.6449 205.174 15.7647C198.435 23.0798 194.128 32.2764 192.701 42.1898C192.617 42.7658 192.118 43.1882 191.542 43.1882H182.474C181.827 43.1882 181.302 43.713 181.302 44.3594V62.0166C181.302 62.6822 180.355 62.8358 180.157 62.2022C178.134 55.8024 174.442 51.6168 171.178 49.0057C165.053 44.097 156.733 41.6138 146.461 41.6138C136.19 41.6138 125.828 44.129 117.745 48.7049C114.552 50.5097 111.806 52.6024 109.541 54.9128C109.182 55.2776 108.561 55.0472 108.536 54.5352L106.609 14.9967C106.577 14.3696 106.065 13.8768 105.438 13.8768H86.789C86.405 13.8768 86.0466 14.0624 85.8226 14.3824L83.9986 17.0127C83.6658 17.4927 83.0258 17.6591 82.5075 17.3903C76.2036 14.1264 69.4261 12.616 61.5351 12.616C45.7786 12.616 30.2461 19.0479 18.9055 30.2668C6.81611 42.2474 0.147441 58.8423 0.147441 76.9987C0.147441 89.4721 -0.857339 101.965 2.3618 114.163C5.15855 124.767 10.304 135.225 18.1887 142.975C29.3565 153.951 44.3002 159.992 60.2807 159.992C70.8917 159.992 80.6771 157.285 89.3553 151.935C93.2208 149.554 96.792 146.668 99.9983 143.353C100.587 142.745 101.605 142.93 101.931 143.717C103.345 147.109 105.464 150.156 108.222 152.677C113.368 157.394 120.459 159.992 128.183 159.992C135.908 159.992 143.428 157.592 150.436 153.093C150.89 152.805 151.485 152.863 151.876 153.228C156.516 157.58 162.544 159.986 169.328 159.986C173.968 159.986 178.518 158.866 182.781 156.741C182.979 156.645 183.203 156.78 183.203 157.004V157.829C183.203 158.156 183.466 158.418 183.792 158.418H293.633C294.279 158.418 294.804 157.893 294.804 157.247V146.431C294.804 145.9 295.451 145.644 295.815 146.028C296.238 146.463 296.667 146.892 297.102 147.314C305.678 155.493 317.197 159.999 329.536 159.999C347.091 159.999 362.118 151.033 369.728 136.012L373.26 129.036C373.343 128.87 373.388 128.691 373.388 128.505V108.249C373.388 107.878 373.209 107.526 372.908 107.302L372.902 107.309ZM86.533 90.8417C84.9842 96.0768 81.8099 100.723 77.362 103.878C73.842 106.374 69.3685 108.134 63.7558 108.134C57.6951 108.134 52.6648 105.561 48.8121 100.493C48.4409 100.006 48.0889 99.5007 47.7497 98.9759C42.5786 91.0081 42.297 80.7939 46.8281 72.4484C50.8153 65.1014 56.6904 62.119 62.3414 62.119C73.0228 62.119 80.7219 75.8532 84.3634 84.0386L86.3986 88.6145C86.7122 89.3185 86.7634 90.1057 86.5458 90.8417H86.533ZM192.182 108.678C192.182 109.248 191.453 109.485 191.12 109.024L185.264 100.87C185.053 100.576 184.63 100.544 184.374 100.8L182.704 102.47C182.333 102.841 181.699 102.579 181.699 102.054V92.6528C181.699 92.3265 181.962 92.0641 182.288 92.0641H191.6C191.926 92.0641 192.189 92.3265 192.189 92.6528V108.678H192.182ZM242.306 110.7C242.306 111.027 242.044 111.289 241.717 111.289H231.548C231.221 111.289 230.959 111.027 230.959 110.7V92.6592C230.959 92.3328 231.221 92.0705 231.548 92.0705H241.717C242.044 92.0705 242.306 92.3328 242.306 92.6592V110.707V110.7Z" fill="#159339"/>
<path d="M942.786 0.59062C942.786 0.264226 942.523 0.00183105 942.197 0.00183105H928.175L928.008 0.0274306L894.659 9.85124C894.409 9.92164 894.236 10.152 894.236 10.4144V48.0265C894.236 48.2505 894.364 48.4489 894.563 48.5513L903.529 53.0376C903.727 53.14 903.855 53.3384 903.855 53.5624V107.865C903.855 108.435 903.126 108.672 902.793 108.211L897.519 100.877C897.308 100.582 896.886 100.55 896.63 100.806L894.96 102.477C894.588 102.848 893.955 102.585 893.955 102.061V72.7556C893.955 60.0903 888.24 52.8584 883.446 49.0185C877.321 44.1098 869.002 41.6266 858.73 41.6266C848.458 41.6266 838.097 44.1418 830.014 48.7177C821.803 53.364 816.446 59.7895 814.891 66.9573C814.756 67.5845 813.873 67.5781 813.745 66.9509C812.612 61.4982 810.481 56.6855 807.422 52.7432C800.286 43.5594 790.418 41.6266 783.397 41.6266C774.2 41.6266 765.56 45.569 758.623 50.7337C758.527 50.804 758.386 50.7913 758.303 50.7017C752.805 44.8202 745.113 41.6202 735.948 41.6202C730.291 41.6202 725.196 43.041 720.78 45.1082C720.39 45.2874 719.948 45.0058 719.948 44.577V42.209C719.948 41.8826 719.686 41.6202 719.36 41.6202H705.504L705.338 41.6458L671.572 51.5272C671.469 51.5592 671.393 51.6552 671.393 51.764V54.996C671.393 55.5208 670.759 55.7768 670.388 55.4056C670.369 55.3864 670.349 55.3608 670.324 55.3416C661.505 46.4969 649.569 41.6202 636.718 41.6202C623.867 41.6202 612.04 46.4969 603.24 55.348C599.951 58.6567 597.205 62.4262 595.048 66.5349C594.831 66.9509 594.236 66.9509 594.012 66.5349C591.849 62.4198 589.097 58.6503 585.794 55.3416C576.975 46.4969 565.039 41.6202 552.188 41.6202C539.338 41.6202 527.511 46.4969 518.711 55.348C514.532 59.5527 511.229 64.4998 508.893 69.9525C508.804 70.1701 508.593 70.3109 508.356 70.3109H503.325C502.775 70.3109 502.321 69.8885 502.282 69.3381L502.212 68.3269L499.613 15.0031C499.581 14.376 499.07 13.8832 498.442 13.8832H479.793C479.409 13.8832 479.051 14.0688 478.827 14.3888L476.619 17.5695C476.452 17.8127 476.132 17.8895 475.87 17.7551C469.176 14.344 461.669 12.6224 453.432 12.6224C437.58 12.6224 421.804 19.0159 410.15 30.1644C397.555 42.2154 390.617 58.8487 390.617 77.0115V98.1439C390.617 115.75 397.26 131.724 409.324 143.122C420.85 154.015 436.402 160.012 453.112 160.012C469.822 160.012 488.42 153.81 500.004 143.826L502.909 141.324C503.165 141.1 503.319 140.774 503.319 140.434V119.846C503.319 119.846 503.319 118.988 503.319 118.387C503.319 118.067 503.575 117.804 503.889 117.798C504.138 117.798 504.401 117.785 504.669 117.785C504.97 117.785 505.226 118.003 505.265 118.297C506.66 129.081 511.306 138.834 518.711 146.277C527.511 155.128 539.402 160.005 552.188 160.005C564.975 160.005 576.975 155.135 585.794 146.284C589.097 142.975 591.849 139.206 594.012 135.084C594.229 134.668 594.824 134.668 595.042 135.084C597.199 139.193 599.944 142.962 603.234 146.271C612.034 155.122 623.925 159.999 636.712 159.999C649.499 159.999 661.498 155.128 670.317 146.277C670.605 145.989 670.881 145.701 671.162 145.407C671.527 145.017 672.173 145.273 672.173 145.81V147.858V157.836C672.173 158.162 672.436 158.424 672.762 158.424H822.91C823.236 158.424 823.498 158.162 823.498 157.836V156.14C823.498 155.679 824.004 155.404 824.394 155.64C828.977 158.469 834.519 159.992 840.433 159.992C848.189 159.992 855.952 157.509 863.063 152.85C863.293 152.696 863.6 152.728 863.798 152.92C868.483 157.471 874.627 159.992 881.571 159.992C885.852 159.992 890.064 159.039 894.031 157.221C894.415 157.042 894.857 157.33 894.857 157.752V157.829C894.857 158.156 895.12 158.418 895.446 158.418H999.406C999.732 158.418 999.994 158.156 999.994 157.829V111.865C999.994 111.539 999.732 111.276 999.406 111.276H991.598C991.271 111.276 991.009 111.014 991.009 110.688V76.5188C991.009 55.636 978.305 41.601 959.406 41.601C953.454 41.601 948.162 43.0602 943.611 45.1722C943.221 45.3514 942.779 45.0634 942.779 44.641V0.59062H942.786ZM467.825 70.2981H450.622C450.296 70.2981 450.034 70.5605 450.034 70.8869V108.896C450.034 109.299 449.63 109.587 449.246 109.453C445.631 108.185 442.418 105.773 439.775 102.297C439.499 101.939 439.237 101.568 438.975 101.19C432.78 92.1281 432.703 80.1027 438.808 70.9765C439.051 70.6117 439.307 70.2533 439.563 69.9077C443.352 64.807 448.414 62.1126 454.213 62.1126C458.475 62.1126 462.341 63.7318 466.027 67.0597C466.789 67.7445 467.531 68.4997 468.267 69.3189C468.606 69.6965 468.331 70.2981 467.825 70.2981ZM557.283 106.304C557.008 106.976 556.739 107.513 556.508 107.936C554.953 110.726 553.52 110.963 552.188 110.963C550.019 110.963 548.413 109.171 547.267 106.406C545.846 102.976 545.789 99.1167 547.126 95.6544C547.446 94.8224 547.76 94.176 548.029 93.6832C549.705 90.6369 551.261 90.6369 552.188 90.6369C553.507 90.6369 554.928 90.8737 556.496 93.7088C556.732 94.1376 557.001 94.6816 557.276 95.3664C558.704 98.8671 558.704 102.803 557.276 106.304H557.283ZM641.819 106.304C641.544 106.976 641.275 107.513 641.044 107.936C639.489 110.726 638.056 110.963 636.724 110.963C634.555 110.963 632.949 109.171 631.803 106.406C630.382 102.976 630.325 99.1167 631.662 95.6544C631.982 94.8224 632.296 94.176 632.565 93.6896C634.241 90.6433 635.797 90.6433 636.724 90.6433C638.043 90.6433 639.464 90.8801 641.032 93.7152C641.268 94.144 641.537 94.688 641.812 95.3728C643.24 98.8735 643.24 102.809 641.812 106.31L641.819 106.304ZM728.46 111.033C728.46 111.168 728.352 111.276 728.217 111.276H720.198C720.064 111.276 719.955 111.168 719.955 111.033V97.0688C719.955 96.9856 719.993 96.9088 720.064 96.864C721.632 95.7952 723.584 94.8992 725.708 94.8992C726.611 94.8992 727.097 95.0848 727.34 95.2704C728.275 95.9872 728.467 97.0304 728.467 101.273V111.033H728.46ZM775.749 111.033C775.749 111.168 775.64 111.276 775.506 111.276H767.487C767.352 111.276 767.244 111.168 767.244 111.033V97.0688C767.244 96.9856 767.282 96.9088 767.352 96.864C768.92 95.7952 770.872 94.8992 772.997 94.8992C773.899 94.8992 774.386 95.0848 774.629 95.2704C775.563 95.9872 775.755 97.0304 775.755 101.273V111.033H775.749ZM952.315 111.059C952.315 111.193 952.194 111.302 952.04 111.302H943.067C942.914 111.302 942.792 111.193 942.792 111.059V97.0944C942.792 97.0112 942.837 96.9344 942.914 96.8896C944.667 95.8208 946.85 94.9248 949.23 94.9248C950.242 94.9248 950.786 95.1104 951.054 95.296C952.104 96.0128 952.315 97.056 952.315 101.299V111.059Z" fill="#159339"/>
<path d="M62.3348 31.4509C44.684 31.4509 32.3898 47.6874 32.3898 75.5845C32.3898 101.274 45.4712 117.67 63.7556 117.67C76.0498 117.67 86.456 111.526 93.387 100.173L100.638 105.53C92.7599 119.558 78.5713 129.331 60.2869 129.331C33.337 129.331 9.68945 108.685 9.68945 76.9988C9.68945 43.5851 34.9114 22.1455 61.5477 22.1455C72.1075 22.1455 79.1985 25.4542 85.8224 31.1309L91.1791 23.4063H97.483L99.2173 59.028H93.0734C85.5088 42.0043 75.1026 31.4445 62.3348 31.4445V31.4509Z" fill="#FFCC00"/>
<path d="M153.405 117.196C146.154 124.761 137.168 129.331 128.183 129.331C117.149 129.331 109.425 122.24 109.425 112.147C109.425 97.4848 124.081 89.133 152.611 81.4083V72.8965C152.611 64.2247 148.669 59.8151 140.631 59.8151C134.954 59.8151 129.757 62.4967 129.757 66.4326C129.757 68.007 130.858 69.7414 130.858 72.2629C130.858 77.306 127.236 81.2483 121.399 81.2483C116.356 81.2483 111.786 77.7796 111.786 71.4757C111.786 59.9687 128.65 51.1433 146.461 51.1433C162.224 51.1433 172.15 58.0808 172.15 72.7365V112.614C172.15 116.71 174.198 118.444 176.566 118.444C178.934 118.444 181.135 117.497 183.657 114.976L187.279 120.019C182.71 125.375 176.406 129.318 169.308 129.318C161.584 129.318 156.067 124.748 153.392 117.184L153.405 117.196ZM128.976 107.424C128.976 114.201 133.232 117.824 138.909 117.824C143.799 117.824 148.048 115.616 152.624 111.68V88.8258C138.755 92.4481 128.983 97.1776 128.983 107.424H128.976Z" fill="#FFCC00"/>
<path d="M251.848 61.3959H221.43V117.51C221.43 120.505 222.377 120.819 232.463 120.819V127.756H192.745V120.819C200.784 120.819 201.731 120.505 201.731 117.664V61.3959H190.857V52.7241H201.731V49.5689C201.731 28.1293 217.967 10.9521 236.879 10.9521C246.018 10.9521 252.328 15.048 252.328 21.5119C252.328 27.0286 248.232 29.8637 244.29 29.8637C236.092 29.8637 235.151 20.8783 229.634 20.8783C224.745 20.8783 221.436 25.6078 221.436 37.902V52.7177H251.855V48.3018C251.855 27.0222 266.51 9.5249 284.481 9.5249C292.833 9.5249 299.137 13.3072 299.137 20.0847C299.137 26.3886 294.567 28.7565 290.625 28.7565C283.06 28.7565 282.273 19.4575 277.544 19.4575C273.128 19.4575 271.553 24.5006 271.553 34.1132V52.7113H289.204V61.3831H271.553V117.497C271.553 120.492 272.814 120.806 285.268 120.806V127.743H242.869V120.806C250.907 120.806 251.855 120.492 251.855 117.651V61.3959H251.848Z" fill="#FFCC00"/>
<path d="M329.53 129.331C309.985 129.331 292.487 115.142 292.487 91.5009C292.487 67.8598 309.197 51.1497 329.843 51.1497C350.489 51.1497 361.209 66.599 361.209 85.3506V89.6065H312.033C312.666 107.577 321.965 117.504 335.047 117.504C343.558 117.504 348.915 114.035 354.752 105.837L361.216 110.566C355.225 122.387 343.405 129.324 329.536 129.324L329.53 129.331ZM341.51 39.4891L337.568 43.2714L314.868 27.6685C310.772 24.987 309.037 21.8382 309.037 18.8431C309.037 13.9536 312.82 10.1713 317.863 10.1713C321.018 10.1713 324.8 12.2192 327.795 17.1087L341.51 39.4891ZM312.353 81.7347H342.458C342.458 69.9141 339.462 60.1415 329.216 60.1415C320.077 60.1415 313.767 68.0197 312.353 81.7347Z" fill="#FFCC00"/>
<path d="M459.576 87.0914V79.8403H507.338V87.0914C495.357 87.0914 493.783 87.8786 493.783 91.5073V115.468C483.537 124.294 467.3 129.337 453.118 129.337C424.434 129.337 400.159 108.691 400.159 77.0052C400.159 43.5914 426.642 22.1519 453.438 22.1519C463.838 22.1519 472.196 25.4606 478.814 31.1373L484.17 23.4126H490.474L492.209 59.0343H485.905C478.494 42.0107 467.934 31.4509 454.225 31.4509C436.574 31.4509 422.86 47.6874 422.86 75.898C422.86 104.109 436.888 120.032 455.486 120.032C461.95 120.032 468.254 119.244 472.983 115.616V91.5009C472.983 87.8786 471.563 87.085 459.588 87.085L459.576 87.0914Z" fill="#FFCC00"/>
<path d="M552.188 51.1497C573.154 51.1497 590.178 67.2262 590.178 90.2401C590.178 113.254 573.154 129.331 552.188 129.331C531.222 129.331 514.358 113.254 514.358 90.2401C514.358 67.2262 531.382 51.1497 552.188 51.1497ZM552.188 59.9751C541.315 59.9751 535.324 71.1685 535.324 90.2401C535.324 109.312 541.315 120.505 552.188 120.505C563.061 120.505 569.212 109.472 569.212 90.2401C569.212 71.0085 563.221 59.9751 552.188 59.9751Z" fill="#FFCC00"/>
<path d="M636.724 51.1497C657.69 51.1497 674.714 67.2262 674.714 90.2401C674.714 113.254 657.69 129.331 636.724 129.331C615.758 129.331 598.895 113.254 598.895 90.2401C598.895 67.2262 615.918 51.1497 636.724 51.1497ZM636.724 59.9751C625.851 59.9751 619.861 71.1685 619.861 90.2401C619.861 109.312 625.851 120.505 636.724 120.505C647.598 120.505 653.748 109.472 653.748 90.2401C653.748 71.0085 647.758 59.9751 636.724 59.9751Z" fill="#FFCC00"/>
<path d="M719.397 127.756H681.728V120.819C689.766 120.819 690.713 120.505 690.713 117.664V71.6421C690.713 68.3333 689.766 67.3861 687.091 65.9654L680.94 62.9702V58.7143L706.79 51.1497H710.412V65.4918C715.455 59.0279 724.914 51.1497 735.947 51.1497C746.981 51.1497 753.445 57.1399 756.28 65.9654C761.636 59.5015 772.043 51.1497 783.39 51.1497C798.365 51.1497 805.143 62.4966 805.143 76.5252V117.664C805.143 120.499 805.93 120.819 813.968 120.819V127.756H776.299V120.819C784.497 120.819 785.284 120.505 785.284 117.664V80.1475C785.284 70.3749 781.502 64.2246 772.99 64.2246C767.16 64.2246 761.323 67.3797 757.387 71.6357C757.547 73.21 757.701 74.7908 757.701 76.5252V117.664C757.701 120.499 758.648 120.819 766.686 120.819V127.756H729.016V120.819C737.055 120.819 738.002 120.505 738.002 117.664V80.1475C738.002 70.3749 734.219 64.2246 725.708 64.2246C719.877 64.2246 714.514 67.2197 710.418 71.4757V117.657C710.418 120.492 711.365 120.812 719.404 120.812V127.75L719.397 127.756Z" fill="#FFCC00"/>
<path d="M865.654 117.196C858.403 124.761 849.417 129.331 840.432 129.331C829.398 129.331 821.674 122.24 821.674 112.147C821.674 97.4848 836.336 89.133 864.86 81.4083V72.8965C864.86 64.2247 860.918 59.8151 852.88 59.8151C847.203 59.8151 842.006 62.4967 842.006 66.4326C842.006 68.007 843.107 69.7414 843.107 72.2629C843.107 77.306 839.485 81.2483 833.648 81.2483C828.605 81.2483 824.035 77.7796 824.035 71.4757C824.035 59.9687 840.899 51.1433 858.71 51.1433C874.473 51.1433 884.399 58.0808 884.399 72.7365V112.614C884.399 116.71 886.447 118.444 888.815 118.444C891.183 118.444 893.384 117.497 895.906 114.976L899.528 120.019C894.959 125.375 888.655 129.318 881.557 129.318C873.833 129.318 868.316 124.748 865.641 117.184L865.654 117.196ZM841.225 107.424C841.225 114.201 845.481 117.824 851.158 117.824C856.048 117.824 860.297 115.616 864.873 111.68V88.8258C851.004 92.4481 841.232 97.1776 841.232 107.424H841.225Z" fill="#FFCC00"/>
<path d="M942.235 127.756H904.405V120.819C912.604 120.819 913.391 120.505 913.391 117.664V30.0301C913.391 26.7214 912.604 25.6142 909.769 24.3534L903.778 21.3583V17.1024L929.467 9.53772H933.25V65.4982C938.139 59.1944 947.752 51.1561 959.412 51.1561C974.388 51.1561 981.479 62.5031 981.479 76.5316V117.67C981.479 120.505 982.426 120.825 990.465 120.825V127.763H952.795V120.825C960.833 120.825 961.78 120.512 961.78 117.67V80.154C961.78 70.2213 957.684 64.2311 948.853 64.2311C942.862 64.2311 937.186 67.3862 933.25 71.4821V117.664C933.25 120.499 934.037 120.819 942.235 120.819V127.756Z" fill="#FFCC00"/>
</g>
<defs>
<clipPath id="clip0_5_474">
<rect width="1000" height="159.997" fill="white" transform="translate(0 0.00183105)"/>
</clipPath>
</defs>
</svg>
