<svg width="1522" height="480" viewBox="0 0 1522 480" fill="none" xmlns="http://www.w3.org/2000/svg">
<g clip-path="url(#clip0_5_1624)">
<path d="M20.8264 140.312C23.5886 171.047 47.1928 181.47 73.8103 181.47C99.4234 181.47 118.257 168.374 118.257 145.39C118.257 129.354 109.97 118.931 85.6124 114.121L51.4617 106.904C27.3552 102.094 5.75988 90.3343 5.75988 57.4613C5.75988 26.1918 31.1219 2.67285 68.2859 2.67285C106.706 2.67285 132.068 20.312 135.583 54.7887H114.741C111.728 33.4078 94.1501 21.1138 68.537 21.1138C42.4217 21.1138 26.853 36.6149 26.853 56.6595C26.853 75.635 36.8974 82.3165 58.7438 86.8599L93.899 94.6105C121.521 100.49 139.099 114.121 139.099 144.321C139.099 176.927 111.979 199.911 74.0614 199.911C35.1396 199.911 2.49546 182.005 -0.015625 140.312H20.8264Z" fill="black"/>
<path d="M221.477 59.0646C249.852 59.0646 266.676 78.0401 266.676 110.111V196.704H245.819V114.922C245.819 90.0668 235.524 77.2383 215.686 77.2383C196.351 77.2383 181.033 90.3341 181.033 122.673V196.704H160.191V0H181.033V86.8597C187.06 69.755 202.126 59.0646 221.477 59.0646Z" fill="black"/>
<path d="M346.524 199.911C310.867 199.911 285.756 173.452 285.756 130.156C285.756 86.325 311.62 59.0645 345.269 59.0645C382.684 59.0645 399.508 90.8685 399.508 125.345V134.165H306.086C307.09 165.167 322.408 182.272 346.514 182.272C363.59 182.272 373.885 173.452 379.158 157.149H398.745C392.969 185.746 371.133 199.911 346.524 199.911ZM306.849 118.129H379.168C378.666 94.8774 367.868 76.9709 345.269 76.9709C325.431 76.9709 310.365 90.6012 306.849 118.129Z" fill="black"/>
<path d="M516.013 173.185C509.735 186.815 494.167 199.911 473.325 199.911C441.183 199.911 417.076 172.116 417.076 129.621C417.076 86.8597 441.183 59.0646 473.325 59.0646C495.171 59.0646 509.484 72.4276 515.26 86.0579V0H536.102V196.704H516.013V173.185ZM516.264 127.483C516.264 97.0156 502.202 76.4365 477.593 76.4365C452.734 76.4365 438.169 98.0846 438.169 129.621C438.169 160.891 452.734 182.539 477.593 182.539C502.202 182.539 516.264 161.693 516.264 131.225V127.483Z" fill="black"/>
<path d="M578.791 167.572H606.162V196.704H578.791V167.572Z" fill="black"/>
<path d="M698.574 5.87988H720.17V90.067H825.133V5.87988H846.728V196.704H825.133V109.31H720.17V196.704H698.574V5.87988Z" fill="black"/>
<path d="M965.825 199.911C916.106 199.911 884.215 158.753 884.215 101.292C884.215 44.0982 916.106 2.67285 965.825 2.67285C1015.54 2.67285 1047.44 44.0982 1047.44 101.292C1047.44 158.753 1015.54 199.911 965.825 199.911ZM965.825 22.1829C926.401 22.1829 906.312 55.3232 906.312 101.292C906.312 147.528 926.401 180.401 965.825 180.401C1005 180.401 1025.09 147.528 1025.09 101.292C1025.09 55.3232 1005 22.1829 965.825 22.1829Z" fill="black"/>
<path d="M1128.14 25.1226H1061.35V5.87988H1216.78V25.1226H1149.74V196.704H1128.14V25.1226Z" fill="black"/>
<path d="M1248.25 196.704V5.87988H1369.28V25.1226H1269.59V91.6705H1358.23V111.181H1269.59V177.461H1369.53V196.704H1248.25Z" fill="black"/>
<path d="M1403.98 5.87988H1425.57V177.461H1522V196.704H1403.98V5.87988Z" fill="black"/>
<path d="M230.447 289.176H253.047L315.322 456.481H315.824L378.099 289.176H400.197L327.375 480H302.767L230.447 289.176Z" fill="black"/>
<path d="M429.1 480V289.176H550.134V308.419H450.444V374.966H539.085V394.476H450.444V460.757H550.385V480H429.1Z" fill="black"/>
<path d="M584.816 480V289.176H653.871C694.049 289.176 716.9 309.22 716.9 345.835C716.9 376.837 696.56 394.209 675.467 399.287L724.684 480H700.326L653.871 402.762H606.161V480H584.816ZM652.616 383.519C679.735 383.519 695.053 370.69 695.053 345.835C695.053 321.782 679.735 308.419 652.616 308.419H606.161V383.519H652.616Z" fill="black"/>
<path d="M756.771 480V289.176H819.8C859.726 289.176 882.828 306.815 882.828 340.223C882.828 357.862 870.273 376.035 854.955 380.846C877.053 386.726 890.864 404.098 890.864 426.548C890.864 461.559 867.51 480 827.835 480H756.771ZM821.055 373.363C847.673 373.363 860.982 361.336 860.982 340.49C860.982 319.376 847.924 307.884 821.306 307.884H778.116V373.363H821.055ZM778.116 461.292H826.831C854.202 461.292 869.268 448.463 869.268 426.548C869.268 404.632 853.699 391.269 826.329 391.269H778.116V461.292Z" fill="black"/>
<path d="M927.871 289.176H949.466V480H927.871V289.176Z" fill="black"/>
<path d="M995.973 480V289.176H1117.01V308.419H1017.32V374.966H1105.96V394.476H1017.32V460.757H1117.26V480H995.973Z" fill="black"/>
<path d="M1151.69 480V289.176H1220.74C1260.92 289.176 1283.77 309.22 1283.77 345.835C1283.77 376.837 1263.43 394.209 1242.34 399.287L1291.55 480H1267.2L1220.74 402.762H1173.03V480H1151.69ZM1219.48 383.519C1246.6 383.519 1261.92 370.69 1261.92 345.835C1261.92 321.782 1246.6 308.419 1219.48 308.419H1173.03V383.519H1219.48Z" fill="black"/>
</g>
<defs>
<clipPath id="clip0_5_1624">
<rect width="1522" height="480" fill="white"/>
</clipPath>
</defs>
</svg>
