<svg width="4126" height="400" viewBox="0 0 4126 400" fill="none" xmlns="http://www.w3.org/2000/svg">
<g clip-path="url(#clip0_297_599)">
<path d="M45.1124 280.565C50.9896 342.019 101.223 362.867 157.869 362.867C214.514 362.867 252.459 336.676 252.459 290.727C252.459 258.659 234.827 237.822 182.991 228.205L110.317 213.779C59.0146 204.162 13.0552 180.643 13.0552 114.915C13.0552 49.1864 67.0183 5.34277 146.114 5.34277C225.21 5.34277 281.855 40.6165 289.335 109.55H244.979C238.567 66.7966 201.157 42.2193 146.649 42.2193C92.1405 42.2193 57.9354 73.2187 57.9354 113.29C57.9354 151.235 79.3069 164.593 125.801 173.676L200.612 189.17C259.394 200.924 296.805 228.184 296.805 288.569C296.805 353.763 239.091 399.722 158.392 399.722C77.6933 399.722 6.09874 363.925 0.755859 280.565H45.1124Z" fill="white"/>
<path d="M472.094 118.099C532.479 118.099 568.287 156.044 568.287 220.169V393.321H523.931V229.797C523.931 180.098 502.025 154.441 459.806 154.441C417.586 154.441 386.063 180.632 386.063 245.292V393.321H341.707V0H386.063V173.676C398.886 139.471 430.954 118.099 472.105 118.099H472.094Z" fill="white"/>
<path d="M738.212 399.733C662.322 399.733 608.882 346.828 608.882 260.252C608.882 173.676 663.925 118.099 735.541 118.099C815.171 118.099 850.968 181.69 850.968 250.635V268.266H652.17C654.307 330.254 686.91 364.459 738.212 364.459C774.554 364.459 796.46 346.828 807.68 314.226H849.365C837.077 371.405 790.583 399.733 738.212 399.733ZM653.773 236.209H807.68C806.612 189.715 783.637 153.907 735.541 153.907C693.321 153.907 661.264 181.166 653.773 236.209Z" fill="white"/>
<path d="M1098.92 346.293C1085.56 373.553 1052.43 399.733 1008.07 399.733C939.671 399.733 888.369 344.156 888.369 259.183C888.369 174.21 939.671 118.099 1008.07 118.099C1054.56 118.099 1085.03 144.813 1097.32 172.073V0H1141.67V393.321H1098.92V346.293ZM1099.46 254.909C1099.46 193.989 1069.52 152.838 1017.15 152.838C964.782 152.838 933.249 196.126 933.249 259.183C933.249 322.24 964.248 364.993 1017.15 364.993C1070.06 364.993 1099.46 323.308 1099.46 262.389V254.909Z" fill="white"/>
<path d="M1232.51 335.073H1290.76V393.321H1232.51V335.073Z" fill="white"/>
<path d="M1680.16 242.46V215.414H1858.28V242.46C1813.61 242.46 1807.73 245.398 1807.73 258.916V348.27C1769.52 381.193 1708.97 400 1656.07 400C1549.08 400 1458.55 322.988 1458.55 204.835C1458.54 80.2073 1557.3 0.26709 1657.23 0.26709C1696.03 0.26709 1727.18 12.6091 1751.87 33.7776L1771.86 4.96882H1795.36L1801.83 137.825H1778.32C1750.69 74.3408 1711.31 34.9531 1660.17 34.9531C1594.33 34.9531 1543.19 95.4986 1543.19 200.721C1543.19 305.944 1595.51 365.314 1664.87 365.314C1688.97 365.314 1712.49 362.375 1730.12 348.858V258.916C1730.12 245.398 1724.83 242.46 1680.15 242.46H1680.16Z" fill="white"/>
<path d="M2082.79 400C1981.68 400 1892.33 319.461 1892.33 200.134C1892.33 80.8056 1981.68 0.26709 2082.79 0.26709C2183.9 0.26709 2273.25 80.8056 2273.25 200.134C2273.25 319.461 2183.9 400 2082.79 400ZM2082.79 35.5301C2016.37 35.5301 1976.98 101.953 1976.98 200.123C1976.98 298.293 2016.37 364.716 2082.79 364.716C2149.21 364.716 2189.19 298.293 2189.19 200.123C2189.19 101.953 2149.21 35.5301 2082.79 35.5301Z" fill="white"/>
<path d="M2503.14 400C2402.03 400 2312.67 319.461 2312.67 200.134C2312.67 80.8056 2402.03 0.26709 2503.14 0.26709C2604.24 0.26709 2693.6 80.8056 2693.6 200.134C2693.6 319.461 2604.24 400 2503.14 400ZM2503.14 35.5301C2436.71 35.5301 2397.33 101.953 2397.33 200.123C2397.33 298.293 2436.71 364.716 2503.14 364.716C2569.56 364.716 2609.53 298.293 2609.53 200.123C2609.53 101.953 2569.56 35.5301 2503.14 35.5301Z" fill="white"/>
<path d="M3211.61 33.1795C3166.94 33.1795 3161.06 36.1181 3161.06 49.6356V350.611C3161.06 364.128 3166.94 367.067 3211.61 367.067V394.112H3031.73V367.067C3076.41 367.067 3082.28 364.128 3082.28 350.611V39.6551H3079.93L2956.49 397.649H2927.09L2807.77 39.6551H2805.41V350.621C2805.41 364.139 2810.7 367.077 2858.91 367.077V394.123H2714.3V367.077C2761.91 367.077 2767.79 364.139 2767.79 350.621V49.6463C2767.79 36.1288 2761.91 33.1902 2714.3 33.7779V6.14453H2880.65L2963.54 275.372H2965.89L3055.84 6.14453H3211.61V33.1902V33.1795Z" fill="white"/>
<path d="M3384.43 394.123H3240.41V367.077C3276.27 367.077 3283.32 365.314 3289.79 349.446L3427.94 4.96875H3476.73L3615.46 349.446C3621.34 365.314 3628.39 367.077 3664.25 367.077V394.123H3477.31V367.077C3520.23 367.077 3533.16 364.726 3533.16 355.91C3533.16 353.56 3532.57 351.209 3530.22 344.744L3498.47 260.091H3363.27L3330.93 344.744C3328.58 351.209 3327.99 353.56 3327.99 355.91C3327.99 364.726 3341.51 367.077 3384.42 367.077V394.123H3384.43ZM3375.03 229.519H3486.72L3432.64 85.4966H3430.29L3375.03 229.519Z" fill="white"/>
<path d="M3872.44 394.123H3693.15V367.077C3737.82 367.077 3743.11 364.139 3743.11 350.621V49.6463C3743.11 36.1288 3737.82 33.1902 3693.15 33.1902V6.14453H3872.44V33.1902C3828.35 33.1902 3822.47 36.1288 3822.47 49.6463V180.739H3996.47V49.6463C3996.47 36.1288 3990.59 33.1902 3946.5 33.1902V6.14453H4125.8V33.1902C4081.12 33.1902 4075.83 36.1288 4075.83 49.6463V350.621C4075.83 364.139 4081.12 367.077 4125.8 367.077V394.123H3946.5V367.077C3990.59 367.077 3996.47 364.139 3996.47 350.621V211.888H3822.47V350.621C3822.47 364.139 3828.35 367.077 3872.44 367.077V394.123Z" fill="white"/>
</g>
<defs>
<clipPath id="clip0_297_599">
<rect width="4125.04" height="400" fill="white" transform="translate(0.755859)"/>
</clipPath>
</defs>
</svg>
