<svg width="124" height="188" viewBox="0 0 124 188" fill="none" xmlns="http://www.w3.org/2000/svg">
<g clip-path="url(#clip0_5_169)">
<path d="M80.1099 67.09C74.2599 75.54 68.4299 84.01 62.5599 92.45C56.9099 100.59 51.1999 108.7 45.5599 116.86C43.5599 119.76 43.7999 119.68 45.5699 122.49C50.4599 130.25 53.5099 138.32 51.0299 147.86C48.8699 156.19 44.2999 162.24 36.5199 165.68C28.4599 169.25 20.5699 168.39 13.6199 163.02C9.2399 159.64 5.6299 155.43 3.4499 150.08C1.8799 146.21 0.999899 142.32 0.699899 138.17C-0.130101 126.68 8.0899 117.52 18.1199 116.47C19.0799 116.37 20.0799 116.37 20.9899 116.08C21.7199 115.85 22.5899 115.4 22.9399 114.78C25.1299 110.92 28.4899 110.9 32.4099 112.35C36.1599 113.74 36.0899 113.84 38.4099 110.57C43.1699 103.87 48.0199 97.23 52.7499 90.5C59.6399 80.71 66.4899 70.88 73.2599 61.01C73.9399 60.02 74.3599 58.53 74.2199 57.35C73.9099 54.88 74.7599 53.29 77.0199 52.54C79.3799 51.76 80.8099 50.08 82.0399 48.07C83.1799 46.21 84.4199 44.42 85.5799 42.58C89.5199 36.35 93.4399 30.1 97.3799 23.87C97.8999 23.05 98.4199 22.22 99.0699 21.52C100.8 19.66 103.59 19.5 105.66 21.06C107.38 22.35 107.36 23.71 105.57 26.43C104.98 27.33 104.35 28.2 103.58 29.3C103.44 29.51 103.48 29.8 103.67 29.96C104.91 30.98 105.95 31.95 107.14 32.68C110.84 34.96 114.56 37.23 118.39 39.3C120.43 40.4 121.75 41.97 122.77 43.95C123.5 45.38 123.7 46.74 122.46 47.94C121.25 49.1 119.78 49.06 118.42 48.3C116.95 47.48 115.63 46.39 114.2 45.5C109.56 42.59 104.89 39.71 99.9699 36.65C99.7299 36.5 99.4099 36.58 99.2599 36.82L95.8899 42.46C95.7499 42.69 95.8199 42.98 96.0299 43.13C98.1099 44.6 99.8799 46.04 101.85 47.11C104.57 48.59 106.3 50.8 107.36 53.59C108.37 56.26 106.98 57.87 104.15 57.24C102.88 56.96 101.67 56.3 100.52 55.65C97.6599 54.05 94.8499 52.38 91.8699 50.64C91.5799 50.47 91.1899 50.56 90.9899 50.84C89.9499 52.35 89.0599 53.69 88.0999 54.97C87.0699 56.35 87.4699 57.47 88.6799 58.4C92.3999 61.29 96.1599 64.12 99.8799 67.02C102.21 68.83 104.3 70.87 104.95 73.93C105.38 75.97 103.95 77.48 101.91 77.09C100.49 76.82 99.0699 76.05 97.8599 75.22C95.1699 73.37 92.6599 71.26 89.9999 69.37C87.7799 67.8 85.6399 66.05 82.6899 65.21C82.1299 65.05 81.5299 65.24 81.1699 65.69C80.7899 66.17 80.4399 66.62 80.1199 67.08L80.1099 67.09ZM27.4999 123.36C24.9299 124.01 22.3799 124.69 19.8199 125.36C14.2399 126.82 11.2099 130.64 10.6199 136.15C9.9999 141.92 10.8799 147.8 14.3699 152.4C19.7399 159.48 26.3199 162.08 35.0299 155.79C44.9199 148.65 44.1199 135.16 38.3499 126.92C37.6299 125.89 36.3699 125.25 35.3599 124.43C32.9999 122.02 30.2499 122.66 27.5099 123.36H27.4999Z" fill="black"/>
<path d="M21.8698 154.31C25.4598 156.84 28.7298 155.34 29.3598 151.02C29.7798 148.12 28.2498 145.92 26.0398 144.19C23.9798 142.59 21.8098 142.61 19.6098 143.92C17.4698 145.19 16.7298 146.92 17.8698 149.14C18.7798 150.91 19.7698 152.63 21.4398 154.02L21.8698 154.32V154.31Z" fill="black"/>
</g>
<defs>
<clipPath id="clip0_5_169">
<rect width="122.7" height="147.83" fill="white" transform="translate(0.649902 20)"/>
</clipPath>
</defs>
</svg>
