<svg width="406" height="120" viewBox="0 0 406 120" fill="none" xmlns="http://www.w3.org/2000/svg">
<g clip-path="url(#clip0_5_93)">
<path d="M6.05445 35.0779C6.78941 42.7616 13.07 45.3674 20.1524 45.3674C26.9676 45.3674 31.9787 42.0935 31.9787 36.3474C31.9787 32.3385 29.7738 29.7327 23.2928 28.53L14.2059 26.726C7.79164 25.5233 2.04554 22.5835 2.04554 14.3652C2.04554 6.54782 8.79387 0.668091 18.6825 0.668091C28.9052 0.668091 35.6536 5.07789 36.589 13.697H31.0433C30.2415 8.35183 25.5645 5.27834 18.7493 5.27834C11.8005 5.27834 7.65801 9.15361 7.65801 14.1648C7.65801 18.9086 10.3306 20.579 16.1435 21.7149L25.4977 23.6525C32.8473 25.1224 37.5244 28.53 37.5244 36.0801C37.5244 44.2316 30.3083 49.9777 20.2193 49.9777C9.86291 49.9777 1.17694 45.5011 0.508789 35.0779H6.05445Z" fill="white"/>
<path d="M59.4436 14.7661C66.9937 14.7661 71.4703 19.51 71.4703 27.5278V49.1759H65.9207V28.7305C65.9207 22.5167 63.1813 19.3096 57.9029 19.3096C52.7581 19.3096 48.6824 22.5835 48.6824 30.6682V49.1759H43.1367V0H48.6824V21.7149C50.2859 17.4388 54.2948 14.7661 59.4436 14.7661Z" fill="white"/>
<path d="M92.7161 49.9777C83.2284 49.9777 76.5469 43.363 76.5469 32.5389C76.5469 21.5813 83.4288 14.7661 92.3821 14.7661C102.338 14.7661 106.814 22.7171 106.814 31.3363V33.5412H81.9562C82.2235 41.2917 86.2992 45.5679 92.7135 45.5679C97.2569 45.5679 99.9963 43.363 101.399 39.2873H106.611C105.074 46.4365 99.264 49.9777 92.7161 49.9777ZM82.1593 29.5323H101.402C101.268 23.7193 98.3954 19.2427 92.3821 19.2427C87.1037 19.2427 83.0948 22.6503 82.1593 29.5323Z" fill="white"/>
<path d="M137.814 43.2962C136.144 46.7038 132.001 49.9777 126.455 49.9777C117.903 49.9777 111.489 43.029 111.489 32.4053C111.489 21.7149 117.903 14.7661 126.455 14.7661C132.268 14.7661 136.077 18.1069 137.613 21.5145V0H143.159V49.1759H137.814V43.2962ZM137.881 31.8708C137.881 24.2539 134.139 19.1091 127.591 19.1091C120.977 19.1091 117.101 24.5212 117.101 32.4053C117.101 40.2227 120.977 45.6347 127.591 45.6347C134.139 45.6347 137.881 40.4232 137.881 32.8062V31.8708Z" fill="white"/>
<path d="M154.518 41.8931H161.8V49.1759H154.518V41.8931Z" fill="white"/>
<path d="M186.39 1.46997H192.136V22.5167H220.064V1.46997H225.811V49.176H220.064V27.3274H192.136V49.176H186.39V1.46997Z" fill="white"/>
<path d="M257.5 49.9777C244.27 49.9777 235.785 39.6881 235.785 25.3229C235.785 11.0244 244.27 0.668091 257.5 0.668091C270.729 0.668091 279.215 11.0244 279.215 25.3229C279.215 39.6881 270.729 49.9777 257.5 49.9777ZM257.5 5.5456C247.01 5.5456 241.664 13.8307 241.664 25.3229C241.664 36.8819 247.01 45.1002 257.5 45.1002C267.923 45.1002 273.268 36.8819 273.268 25.3229C273.268 13.8307 267.923 5.5456 257.5 5.5456Z" fill="white"/>
<path d="M300.689 6.28066H282.916V1.46997H324.275V6.28066H306.435V49.176H300.689V6.28066Z" fill="white"/>
<path d="M332.647 49.176V1.46997H364.852V6.28066H338.326V22.9176H361.912V27.7951H338.326V44.3653H364.919V49.176H332.647Z" fill="white"/>
<path d="M374.084 1.46997H379.83V44.3653H405.487V49.176H374.084V1.46997Z" fill="white"/>
<path d="M61.8301 72.2939H67.8434L84.4136 114.12H84.5472L101.117 72.2939H106.997L87.6207 120H81.0728L61.8301 72.2939Z" fill="white"/>
<path d="M114.688 120V72.2939H146.892V77.1046H120.367V93.7416H143.953V98.6191H120.367V115.189H146.959V120H114.688Z" fill="white"/>
<path d="M156.121 120V72.2939H174.495C185.186 72.2939 191.266 77.3051 191.266 86.4588C191.266 94.2093 185.854 98.5523 180.241 99.8218L193.337 120H186.856L174.495 100.69H161.8V120H156.121ZM174.161 95.8797C181.377 95.8797 185.453 92.6726 185.453 86.4588C185.453 80.4454 181.377 77.1046 174.161 77.1046H161.8V95.8797H174.161Z" fill="white"/>
<path d="M201.875 120V72.2939H218.646C229.269 72.2939 235.416 76.7037 235.416 85.0556C235.416 89.4654 232.075 94.0089 228 95.2115C233.879 96.6815 237.554 101.024 237.554 106.637C237.554 115.39 231.34 120 220.784 120H201.875ZM218.98 93.3407C226.062 93.3407 229.603 90.334 229.603 85.1225C229.603 79.8441 226.129 76.971 219.046 76.971H207.554V93.3407H218.98ZM207.554 115.323H220.516C227.799 115.323 231.808 112.116 231.808 106.637C231.808 101.158 227.666 97.8173 220.383 97.8173H207.554V115.323Z" fill="white"/>
<path d="M247.401 72.2939H253.147V120H247.401V72.2939Z" fill="white"/>
<path d="M265.521 120V72.2939H297.726V77.1046H271.201V93.7416H294.787V98.6191H271.201V115.189H297.793V120H265.521Z" fill="white"/>
<path d="M306.954 120V72.2939H325.328C336.018 72.2939 342.098 77.3051 342.098 86.4588C342.098 94.2093 336.686 98.5523 331.074 99.8218L344.17 120H337.689L325.328 100.69H312.633V120H306.954ZM324.994 95.8797C332.21 95.8797 336.285 92.6726 336.285 86.4588C336.285 80.4454 332.21 77.1046 324.994 77.1046H312.633V95.8797H324.994Z" fill="white"/>
</g>
<defs>
<clipPath id="clip0_5_93">
<rect width="404.975" height="120" fill="white" transform="translate(0.512695)"/>
</clipPath>
</defs>
</svg>
