<svg width="281" height="21" viewBox="0 0 281 21" fill="none" xmlns="http://www.w3.org/2000/svg">
<g clip-path="url(#clip0_318_179)">
<path d="M3.13248 14.8675C3.42338 17.9423 5.90927 18.9851 8.7125 18.9851C11.41 18.9851 13.3934 17.675 13.3934 15.3755C13.3934 13.7712 12.5207 12.7284 9.95544 12.2471L6.35884 11.5252C3.82007 11.0439 1.54575 9.86747 1.54575 6.5787C1.54575 3.45035 4.21675 1.09741 8.1307 1.09741C12.1769 1.09741 14.8479 2.86212 15.2181 6.31132H13.0231C12.7058 4.17228 10.8546 2.94233 8.15714 2.94233C5.4068 2.94233 3.76718 4.49313 3.76718 6.49848C3.76718 8.39688 4.825 9.06533 7.12577 9.51987L10.8281 10.2953C13.7372 10.8835 15.5884 12.2471 15.5884 15.2685C15.5884 18.5306 12.7322 20.83 8.73895 20.83C4.63988 20.83 1.20196 19.0386 0.9375 14.8675H3.13248Z" fill="black"/>
<path d="M24.2625 6.73917C27.2509 6.73917 29.0227 8.63756 29.0227 11.8461V20.5092H26.8278V12.3274C26.8278 9.84077 25.7435 8.55735 23.6543 8.55735C21.618 8.55735 20.0048 9.86751 20.0048 13.1028V20.5092H17.8098V0.830078H20.0048V9.51992C20.6395 7.80869 22.2262 6.73917 24.2625 6.73917Z" fill="black"/>
<path d="M37.4318 20.8302C33.6765 20.8302 31.032 18.1831 31.032 13.8516C31.032 9.46653 33.7559 6.73926 37.2996 6.73926C41.24 6.73926 43.0118 9.92108 43.0118 13.3703V14.2526H33.1741C33.2799 17.3542 34.893 19.0655 37.4318 19.0655C39.2301 19.0655 40.3144 18.1831 40.8697 16.5521H42.9325C42.3242 19.4131 40.0235 20.8302 37.4318 20.8302ZM33.2534 12.6483H40.8697C40.8168 10.3221 39.6797 8.5307 37.2996 8.5307C35.2104 8.5307 33.6236 9.89434 33.2534 12.6483Z" fill="black"/>
<path d="M55.2821 18.1563C54.621 19.5199 52.9813 20.8301 50.7864 20.8301C47.4013 20.8301 44.8625 18.0493 44.8625 13.798C44.8625 9.51992 47.4013 6.73917 50.7864 6.73917C53.0871 6.73917 54.5945 8.07607 55.2028 9.4397V0.830078H57.3978V20.5092H55.2821V18.1563ZM55.3086 13.5841C55.3086 10.536 53.8276 8.47714 51.2359 8.47714C48.6178 8.47714 47.084 10.6429 47.084 13.798C47.084 16.9263 48.6178 19.0921 51.2359 19.0921C53.8276 19.0921 55.3086 17.0065 55.3086 13.9584V13.5841Z" fill="black"/>
<path d="M61.8936 17.5947H64.7761V20.5092H61.8936V17.5947Z" fill="black"/>
<path d="M74.5081 1.41821H76.7824V9.84067H87.8366V1.41821H90.1109V20.5091H87.8366V11.7658H76.7824V20.5091H74.5081V1.41821Z" fill="black"/>
<path d="M102.654 20.83C97.4174 20.83 94.0588 16.7124 94.0588 10.9637C94.0588 5.2418 97.4174 1.09741 102.654 1.09741C107.89 1.09741 111.248 5.2418 111.248 10.9637C111.248 16.7124 107.89 20.83 102.654 20.83ZM102.654 3.04928C98.5017 3.04928 96.386 6.36479 96.386 10.9637C96.386 15.5894 98.5017 18.8782 102.654 18.8782C106.779 18.8782 108.895 15.5894 108.895 10.9637C108.895 6.36479 106.779 3.04928 102.654 3.04928Z" fill="black"/>
<path d="M119.748 3.34335H112.714V1.41821H129.084V3.34335H122.023V20.5091H119.748V3.34335Z" fill="black"/>
<path d="M132.399 20.5091V1.41821H145.146V3.34335H134.647V10.0011H143.982V11.953H134.647V18.584H145.172V20.5091H132.399Z" fill="black"/>
<path d="M148.798 1.41821H151.072V18.584H161.227V20.5091H148.798V1.41821Z" fill="black"/>
<path d="M169.188 1.41821H171.568L178.126 18.1562H178.179L184.738 1.41821H187.065L179.395 20.5091H176.804L169.188 1.41821Z" fill="black"/>
<path d="M190.108 20.5091V1.41821H202.855V3.34335H192.356V10.0011H201.691V11.953H192.356V18.584H202.881V20.5091H190.108Z" fill="black"/>
<path d="M206.507 20.5091V1.41821H213.779C218.011 1.41821 220.417 3.42356 220.417 7.08666C220.417 10.1883 218.275 11.9262 216.054 12.4343L221.237 20.5091H218.672L213.779 12.7818H208.755V20.5091H206.507ZM213.647 10.8567C216.503 10.8567 218.116 9.57329 218.116 7.08666C218.116 4.68024 216.503 3.34335 213.647 3.34335H208.755V10.8567H213.647Z" fill="black"/>
<path d="M224.617 20.5091V1.41821H231.255C235.46 1.41821 237.893 3.18292 237.893 6.52516C237.893 8.28987 236.57 10.1081 234.957 10.5893C237.284 11.1776 238.739 12.9155 238.739 15.1615C238.739 18.6642 236.279 20.5091 232.101 20.5091H224.617ZM231.387 9.84067C234.19 9.84067 235.592 8.63746 235.592 6.5519C235.592 4.4396 234.217 3.28987 231.413 3.28987H226.865V9.84067H231.387ZM226.865 18.6375H231.995C234.878 18.6375 236.465 17.354 236.465 15.1615C236.465 12.969 234.825 11.6321 231.942 11.6321H226.865V18.6375Z" fill="black"/>
<path d="M242.636 1.41821H244.911V20.5091H242.636V1.41821Z" fill="black"/>
<path d="M249.808 20.5091V1.41821H262.555V3.34335H252.056V10.0011H261.391V11.953H252.056V18.584H262.581V20.5091H249.808Z" fill="black"/>
<path d="M266.207 20.5091V1.41821H273.48C277.711 1.41821 280.118 3.42356 280.118 7.08666C280.118 10.1883 277.976 11.9262 275.754 12.4343L280.937 20.5091H278.372L273.48 12.7818H268.455V20.5091H266.207ZM273.348 10.8567C276.204 10.8567 277.817 9.57329 277.817 7.08666C277.817 4.68024 276.204 3.34335 273.348 3.34335H268.455V10.8567H273.348Z" fill="black"/>
</g>
<defs>
<clipPath id="clip0_318_179">
<rect width="280" height="20" fill="white" transform="translate(0.9375 0.830078)"/>
</clipPath>
</defs>
</svg>
